<mxfile host="app.diagrams.net" modified="2022-07-28T05:08:00.183Z" agent="5.0 (Macintosh; Intel Mac OS X 10_15_7) AppleWebKit/537.36 (KHTML, like Gecko) Chrome/103.0.0.0 Safari/537.36" etag="WziavxjiKAGByMhgPod-" version="20.2.0" type="github">
  <diagram id="UW2Let9FedXbePVIwO7e" name="Page-1">
    <mxGraphModel dx="1232" dy="1117" grid="1" gridSize="15" guides="1" tooltips="1" connect="1" arrows="1" fold="1" page="1" pageScale="1" pageWidth="850" pageHeight="1100" math="0" shadow="1">
      <root>
        <mxCell id="0" />
        <mxCell id="1" parent="0" />
        <mxCell id="ZzOdG_4jZLLu2tyRgjDv-50" value="Storage&lt;br&gt;Mongo DB 4.4" style="shape=cylinder3;whiteSpace=wrap;html=1;boundedLbl=1;backgroundOutline=1;size=16.4000244140625;strokeColor=default;fillColor=default;gradientColor=#FFE6CC;dashed=1;dashPattern=1 1;gradientDirection=radial;verticalAlign=top;horizontal=1;" parent="1" vertex="1">
          <mxGeometry x="405" y="233" width="75" height="120" as="geometry" />
        </mxCell>
        <mxCell id="ZzOdG_4jZLLu2tyRgjDv-80" value="PPA&lt;br&gt;Admin&lt;br&gt;User" style="shape=umlActor;verticalLabelPosition=bottom;verticalAlign=top;html=1;outlineConnect=0;rounded=1;" parent="1" vertex="1">
          <mxGeometry x="17" y="173" width="30" height="60" as="geometry" />
        </mxCell>
        <mxCell id="ZzOdG_4jZLLu2tyRgjDv-110" value="PPA Application - Overview 1.0" style="text;html=1;strokeColor=none;fillColor=none;align=center;verticalAlign=middle;whiteSpace=wrap;rounded=0;dashed=1;dashPattern=1 1;fontSize=17;shadow=1;sketch=0;" parent="1" vertex="1">
          <mxGeometry x="15" y="15" width="329" height="45" as="geometry" />
        </mxCell>
        <mxCell id="AruDtZ0RBoFqMmwlggtc-1" value="PPA Application" style="swimlane;rounded=1;dashed=1;fillColor=#b1ddf0;strokeColor=#10739e;swimlaneFillColor=#F5FAFF;gradientColor=#ffffff;startSize=30;" parent="1" vertex="1">
          <mxGeometry x="150" y="217.66000000000003" width="135" height="139.34" as="geometry" />
        </mxCell>
        <mxCell id="94U-KyODTTYv6tGU98CZ-2" value="UI&lt;br&gt;&lt;br&gt;/pressure-profile/api&lt;br&gt;&lt;br&gt;/pressure-profile/svc" style="text;html=1;strokeColor=none;fillColor=none;align=left;verticalAlign=middle;whiteSpace=wrap;rounded=0;" vertex="1" parent="AruDtZ0RBoFqMmwlggtc-1">
          <mxGeometry x="15" y="76.34" width="120" height="30" as="geometry" />
        </mxCell>
        <mxCell id="AruDtZ0RBoFqMmwlggtc-10" value="PPA &lt;br&gt;User" style="shape=umlActor;verticalLabelPosition=bottom;verticalAlign=top;html=1;outlineConnect=0;rounded=1;" parent="1" vertex="1">
          <mxGeometry x="17" y="360" width="30" height="60" as="geometry" />
        </mxCell>
        <mxCell id="ZzOdG_4jZLLu2tyRgjDv-84" value="&amp;nbsp;Read&amp;nbsp;" style="endArrow=classic;html=1;rounded=0;entryX=0;entryY=0.75;entryDx=0;entryDy=0;exitX=1;exitY=0.3333333333333333;exitDx=0;exitDy=0;exitPerimeter=0;" parent="1" source="AruDtZ0RBoFqMmwlggtc-10" target="AruDtZ0RBoFqMmwlggtc-1" edge="1">
          <mxGeometry x="-0.051" y="8" width="50" height="50" relative="1" as="geometry">
            <mxPoint x="47" y="661.5" as="sourcePoint" />
            <mxPoint x="152" y="647" as="targetPoint" />
            <mxPoint y="-1" as="offset" />
          </mxGeometry>
        </mxCell>
        <mxCell id="AruDtZ0RBoFqMmwlggtc-19" value="read + write" style="endArrow=classic;html=1;rounded=0;entryX=0;entryY=0.5;entryDx=0;entryDy=0;exitX=1;exitY=0;exitDx=0;exitDy=0;entryPerimeter=0;" parent="1" source="94U-KyODTTYv6tGU98CZ-2" target="ZzOdG_4jZLLu2tyRgjDv-50" edge="1">
          <mxGeometry x="-0.051" y="8" width="50" height="50" relative="1" as="geometry">
            <mxPoint x="456" y="237" as="sourcePoint" />
            <mxPoint x="468" y="345.5" as="targetPoint" />
            <mxPoint y="-1" as="offset" />
          </mxGeometry>
        </mxCell>
        <mxCell id="V6qS4mEH70nxAcZY2XD3-1" value="" style="endArrow=classic;html=1;rounded=0;exitX=1;exitY=0.25;exitDx=0;exitDy=0;strokeColor=#A6A6A6;shadow=0;dashed=1;entryX=0;entryY=0.5;entryDx=0;entryDy=0;" parent="1" source="AruDtZ0RBoFqMmwlggtc-1" target="ZzOdG_4jZLLu2tyRgjDv-90" edge="1">
          <mxGeometry width="50" height="50" relative="1" as="geometry">
            <mxPoint x="456" y="214.5" as="sourcePoint" />
            <mxPoint x="558" y="152" as="targetPoint" />
          </mxGeometry>
        </mxCell>
        <mxCell id="AruDtZ0RBoFqMmwlggtc-29" value="API" style="edgeLabel;html=1;align=center;verticalAlign=middle;resizable=0;points=[];" parent="V6qS4mEH70nxAcZY2XD3-1" vertex="1" connectable="0">
          <mxGeometry x="0.0521" y="-1" relative="1" as="geometry">
            <mxPoint x="-7" y="2" as="offset" />
          </mxGeometry>
        </mxCell>
        <mxCell id="AruDtZ0RBoFqMmwlggtc-27" value="read + write" style="endArrow=classic;html=1;rounded=0;entryX=1;entryY=0.5;entryDx=0;entryDy=0;entryPerimeter=0;exitX=0;exitY=0.75;exitDx=0;exitDy=0;" parent="1" source="94U-KyODTTYv6tGU98CZ-3" target="ZzOdG_4jZLLu2tyRgjDv-50" edge="1">
          <mxGeometry x="-0.0606" y="-5" width="50" height="50" relative="1" as="geometry">
            <mxPoint x="818.21" y="376" as="sourcePoint" />
            <mxPoint x="489" y="293" as="targetPoint" />
            <mxPoint y="1" as="offset" />
          </mxGeometry>
        </mxCell>
        <mxCell id="AruDtZ0RBoFqMmwlggtc-28" value="" style="endArrow=classic;html=1;rounded=0;strokeColor=#A6A6A6;shadow=0;dashed=1;entryX=0.5;entryY=1;entryDx=0;entryDy=0;exitX=0.5;exitY=0;exitDx=0;exitDy=0;" parent="1" source="94U-KyODTTYv6tGU98CZ-3" target="ZzOdG_4jZLLu2tyRgjDv-90" edge="1">
          <mxGeometry width="50" height="50" relative="1" as="geometry">
            <mxPoint x="890" y="318" as="sourcePoint" />
            <mxPoint x="681.5319277108433" y="182" as="targetPoint" />
          </mxGeometry>
        </mxCell>
        <mxCell id="AruDtZ0RBoFqMmwlggtc-30" value="&amp;nbsp;API&amp;nbsp;" style="edgeLabel;html=1;align=center;verticalAlign=middle;resizable=0;points=[];" parent="AruDtZ0RBoFqMmwlggtc-28" vertex="1" connectable="0">
          <mxGeometry x="-0.0812" relative="1" as="geometry">
            <mxPoint x="3" y="-11" as="offset" />
          </mxGeometry>
        </mxCell>
        <mxCell id="AruDtZ0RBoFqMmwlggtc-33" value="read + write" style="endArrow=classic;html=1;rounded=0;entryX=1;entryY=0;entryDx=0;entryDy=81.79998779296875;exitX=0;exitY=0.25;exitDx=0;exitDy=0;entryPerimeter=0;" parent="1" source="94U-KyODTTYv6tGU98CZ-4" target="ZzOdG_4jZLLu2tyRgjDv-50" edge="1">
          <mxGeometry x="0.1243" y="4" width="50" height="50" relative="1" as="geometry">
            <mxPoint x="1051" y="578.5" as="sourcePoint" />
            <mxPoint x="940" y="593.5" as="targetPoint" />
            <mxPoint as="offset" />
          </mxGeometry>
        </mxCell>
        <mxCell id="ZzOdG_4jZLLu2tyRgjDv-111" value="Ingest" style="endArrow=classic;html=1;rounded=0;exitX=1;exitY=0.3333333333333333;exitDx=0;exitDy=0;exitPerimeter=0;entryX=0;entryY=0.25;entryDx=0;entryDy=0;" parent="1" source="ZzOdG_4jZLLu2tyRgjDv-80" target="AruDtZ0RBoFqMmwlggtc-1" edge="1">
          <mxGeometry x="-0.1386" y="3" width="50" height="50" relative="1" as="geometry">
            <mxPoint x="46.999999999999545" y="368" as="sourcePoint" />
            <mxPoint x="150" y="263" as="targetPoint" />
            <mxPoint as="offset" />
          </mxGeometry>
        </mxCell>
        <mxCell id="AruDtZ0RBoFqMmwlggtc-83" value="SA Services" style="text;html=1;strokeColor=#666666;fillColor=#f5f5f5;align=center;verticalAlign=middle;whiteSpace=wrap;rounded=1;fontColor=#333333;" parent="1" vertex="1">
          <mxGeometry x="568.11" y="45" width="150.89" height="30" as="geometry" />
        </mxCell>
        <mxCell id="AruDtZ0RBoFqMmwlggtc-84" value="RNI Domain" style="text;html=1;strokeColor=#666666;fillColor=#f5f5f5;align=center;verticalAlign=middle;whiteSpace=wrap;rounded=1;fontColor=#333333;" parent="1" vertex="1">
          <mxGeometry x="825" y="45" width="135" height="30" as="geometry" />
        </mxCell>
        <mxCell id="ZzOdG_4jZLLu2tyRgjDv-90" value="SA RNI Integration" style="swimlane;fontStyle=0;childLayout=stackLayout;horizontal=1;startSize=30;horizontalStack=0;resizeParent=1;resizeParentMax=0;resizeLast=0;collapsible=1;marginBottom=0;rounded=1;fillStyle=solid;fillColor=#DEFCFF;swimlaneFillColor=#FAFEFF;gradientColor=#DEDEDE;" parent="1" vertex="1">
          <mxGeometry x="572" y="104" width="147" height="66" as="geometry" />
        </mxCell>
        <mxCell id="94U-KyODTTYv6tGU98CZ-3" value="Chronos" style="swimlane;fontStyle=0;childLayout=stackLayout;horizontal=1;startSize=30;horizontalStack=0;resizeParent=1;resizeParentMax=0;resizeLast=0;collapsible=1;marginBottom=0;rounded=1;fillStyle=solid;fillColor=#DEFCFF;swimlaneFillColor=#FAFEFF;gradientColor=#DEDEDE;" vertex="1" parent="1">
          <mxGeometry x="568" y="252" width="147" height="66" as="geometry" />
        </mxCell>
        <mxCell id="94U-KyODTTYv6tGU98CZ-4" value="Echo" style="swimlane;fontStyle=0;childLayout=stackLayout;horizontal=1;startSize=30;horizontalStack=0;resizeParent=1;resizeParentMax=0;resizeLast=0;collapsible=1;marginBottom=0;rounded=1;fillStyle=solid;fillColor=#DEFCFF;swimlaneFillColor=#FAFEFF;gradientColor=#DEDEDE;" vertex="1" parent="1">
          <mxGeometry x="573" y="412" width="147" height="66" as="geometry" />
        </mxCell>
        <mxCell id="94U-KyODTTYv6tGU98CZ-5" value="" style="endArrow=classic;html=1;rounded=0;exitX=1;exitY=0.75;exitDx=0;exitDy=0;strokeColor=#A6A6A6;shadow=0;dashed=1;entryX=0;entryY=0.25;entryDx=0;entryDy=0;" edge="1" parent="1" source="ZzOdG_4jZLLu2tyRgjDv-90" target="94U-KyODTTYv6tGU98CZ-10">
          <mxGeometry width="50" height="50" relative="1" as="geometry">
            <mxPoint x="300" y="267.4950000000001" as="sourcePoint" />
            <mxPoint x="855" y="225" as="targetPoint" />
          </mxGeometry>
        </mxCell>
        <mxCell id="94U-KyODTTYv6tGU98CZ-6" value="API" style="edgeLabel;html=1;align=center;verticalAlign=middle;resizable=0;points=[];" vertex="1" connectable="0" parent="94U-KyODTTYv6tGU98CZ-5">
          <mxGeometry x="0.0521" y="-1" relative="1" as="geometry">
            <mxPoint x="-7" y="2" as="offset" />
          </mxGeometry>
        </mxCell>
        <mxCell id="94U-KyODTTYv6tGU98CZ-7" value="" style="endArrow=classic;html=1;rounded=0;exitX=1;exitY=0.75;exitDx=0;exitDy=0;strokeColor=#A6A6A6;shadow=0;dashed=1;entryX=0;entryY=0.75;entryDx=0;entryDy=0;" edge="1" parent="1" source="94U-KyODTTYv6tGU98CZ-4" target="94U-KyODTTYv6tGU98CZ-10">
          <mxGeometry width="50" height="50" relative="1" as="geometry">
            <mxPoint x="734" y="168.5" as="sourcePoint" />
            <mxPoint x="825" y="315" as="targetPoint" />
          </mxGeometry>
        </mxCell>
        <mxCell id="94U-KyODTTYv6tGU98CZ-8" value="API" style="edgeLabel;html=1;align=center;verticalAlign=middle;resizable=0;points=[];" vertex="1" connectable="0" parent="94U-KyODTTYv6tGU98CZ-7">
          <mxGeometry x="0.0521" y="-1" relative="1" as="geometry">
            <mxPoint x="-7" y="2" as="offset" />
          </mxGeometry>
        </mxCell>
        <mxCell id="AruDtZ0RBoFqMmwlggtc-37" value="RNI &gt;= 4.9.x" style="swimlane;fontStyle=1;childLayout=stackLayout;horizontal=1;startSize=30;horizontalStack=0;resizeParent=1;resizeParentMax=0;resizeLast=0;collapsible=1;marginBottom=0;rounded=1;fillColor=#FFD966;swimlaneFillColor=#FFF9DE;gradientColor=#E3E3E3;" parent="1" vertex="1">
          <mxGeometry x="825" y="232.5" width="150" height="135" as="geometry" />
        </mxCell>
        <mxCell id="94U-KyODTTYv6tGU98CZ-10" value="RNI&lt;br&gt;RNI - Device Manager&lt;br&gt;Field Logic&lt;br&gt;&lt;br&gt;Devices&lt;br&gt;Sensors&lt;br&gt;Flexnet&lt;br&gt;" style="text;html=1;strokeColor=none;fillColor=none;align=left;verticalAlign=middle;whiteSpace=wrap;rounded=0;fillStyle=solid;spacingLeft=5;" vertex="1" parent="AruDtZ0RBoFqMmwlggtc-37">
          <mxGeometry y="30" width="150" height="105" as="geometry" />
        </mxCell>
      </root>
    </mxGraphModel>
  </diagram>
</mxfile>
